Coordinates
version=1
nRows=4
nColumns=107
inDegrees=yes

Units are S.I. units (second, meters, Newtons, ...)
If the header above contains a line with 'inDegrees', this indicates whether rotational values are in degrees (yes) or radians (no).

endheader
time	sternoclavicular_r2	sternoclavicular_r3	unrotscap_r3	unrotscap_r2	acromioclavicular_r2	acromioclavicular_r3	acromioclavicular_r1	unrothum_r1	unrothum_r3	unrothum_r2	elv_angle	shoulder_elv	shoulder1_r2	shoulder_rot	elbow_flexion	pro_sup	deviation	flexion	proximal_distal_r1	proximal_distal_r3	cmc_flexion	cmc_abduction	mp_flexion	ip_flexion	mcp2_flexion	mcp2_abduction	pm2_flexion	md2_flexion	mcp3_flexion	mcp3_abduction	pm3_flexion	md3_flexion	mcp4_flexion	mcp4_abduction	pm4_flexion	md4_flexion	mcp5_flexion	mcp5_abduction	pm5_flexion	md5_flexion	bicpt_tx	bicpt_ty	bicpt_tz	bicpt2_tx	bicpt2_ty	bicpt2_tz	ptpt_tx	ptpt_ty	ptpt_tz	FCUpt_tx	FCUpt_ty	FCUpt_tz	EDCpt_tx	EDCpt_ty	EDCpt_tz	APLpt_tx	APLpt_ty	APLpt_tz	FPLpt_tx	FPLpt_ty	FPLpt_tz	FPLpt2_tx	FPLpt2_ty	FPLpt2_tz	PEC1pt2_tx	PEC1pt2_ty	PEC1pt2_tz	PEC1pt3_tx	PEC1pt3_ty	PEC1pt3_tz	PEC2pt2_tx	PEC2pt2_ty	PEC2pt2_tz	PEC2pt3_tx	PEC2pt3_ty	PEC2pt3_tz	PEC3pt2_tx	PEC3pt2_ty	PEC3pt2_tz	PEC3pt3_tx	PEC3pt3_ty	PEC3pt3_tz	DELT2pt2a_tx	DELT2pt2a_ty	DELT2pt2a_tz	DELT2pt2_tx	DELT2pt2_ty	DELT2pt2_tz	LAT1pt2_tx	LAT1pt2_ty	LAT1pt2_tz	LAT1pt3_tx	LAT1pt3_ty	LAT1pt3_tz	LAT2pt2_tx	LAT2pt2_ty	LAT2pt2_tz	LAT2pt3_tx	LAT2pt3_ty	LAT2pt3_tz	LAT3pt2_tx	LAT3pt2_ty	LAT3pt2_tz	LAT3pt3_tx	LAT3pt3_ty	LAT3pt3_tz
      1.76666667	     -0.30503907	      0.12920015	     -0.12920015	      0.30503907	     -0.06176421	      0.49915659	      0.22436745	     -0.22436745	     -0.49915659	      0.06176421	    112.13541575	     72.22071052	     -1.95713221	    -75.57666981	     27.96568816	     88.50310579	      0.41108409	     -0.96921702	      0.41957940	     -0.48460851	     -1.56336308	      3.33861476	    -23.59573933	    -32.54536534	     49.68240410	     -9.78341637	     24.24778246	      3.12604117	     32.31981092	    -11.68510947	     56.93698929	     49.58903877	      2.12702500	    -10.94503427	     89.69856366	     52.52633872	    -16.97129875	    -13.92022301	     56.17427301	      5.22533728	      0.00082502	     -0.03080530	     -0.00481629	      0.01397400	     -0.01779702	     -0.00064300	      0.00101062	     -0.06912847	     -0.00717940	      0.01302652	     -0.18215208	      0.00015510	     -0.01062035	      0.00371634	     -0.00083929	      0.00020496	      0.00008199	      0.00040993	      0.00026235	      0.00078706	      0.00044272	     -0.00006459	      0.00004044	      0.00004853	      0.00236724	      0.00830539	      0.00577766	     -0.00774367	      0.01869716	     -0.01773421	      0.00236724	      0.00830539	      0.00577766	      0.00052159	      0.01733299	     -0.00910784	      0.00379570	      0.00461852	      0.01558357	      0.00000000	      0.00697073	      0.00000000	     -0.00678073	     -0.03133579	     -0.00574274	      0.02519021	     -0.00243272	     -0.03657758	     -0.00084258	      0.01412317	     -0.00577766	      0.00232711	      0.02038231	     -0.01685151	     -0.00565729	      0.01223741	     -0.00517582	     -0.01179606	      0.02583899	     -0.02892843	     -0.02214770	      0.01368182	     -0.00694122	     -0.01468489	      0.02985125	     -0.03615051
      1.80000000	     -0.30658738	      0.12985594	     -0.12985594	      0.30658738	     -0.06207771	      0.50169019	      0.22550629	     -0.22550629	     -0.50169019	      0.06207771	    112.43767828	     72.58728648	     -1.96240769	    -76.74331938	     27.13562063	     88.61116002	      0.41628508	     -1.07859243	      0.42311572	     -0.53929621	     -5.02270608	      5.56598459	    -22.44243861	    -31.32033472	     50.50791113	    -12.09577825	     24.24692673	      3.50488620	     30.21524067	    -12.54795906	     54.40050632	     49.09676310	     -1.95140116	    -10.89408415	     88.15089644	     54.79861546	    -22.35056461	    -13.77665555	     58.76174310	      5.08504578	      0.00079756	     -0.03071016	     -0.00480096	      0.01396220	     -0.01757152	     -0.00062410	      0.00100264	     -0.06913363	     -0.00718810	      0.01303901	     -0.18214834	      0.00015828	     -0.01063331	      0.00372236	     -0.00084291	      0.00012929	      0.00005172	      0.00025858	      0.00016549	      0.00049648	      0.00027927	     -0.00036632	      0.00013958	      0.00016750	      0.00237925	      0.00834754	      0.00580699	     -0.00778298	      0.01879206	     -0.01782423	      0.00237925	      0.00834754	      0.00580699	      0.00052424	      0.01742096	     -0.00915407	      0.00381008	      0.00464196	      0.01562086	      0.00000000	      0.00704209	      0.00000000	     -0.00681515	     -0.03149484	     -0.00580205	      0.02498698	     -0.00247366	     -0.03734808	     -0.00084685	      0.01419486	     -0.00580699	      0.00233893	      0.02048576	     -0.01693705	     -0.00568601	      0.01229952	     -0.00520209	     -0.01185593	      0.02597014	     -0.02907527	     -0.02226012	      0.01375127	     -0.00697645	     -0.01475943	      0.03000277	     -0.03633400
      1.83333333	     -0.30720519	      0.13011762	     -0.13011762	      0.30720519	     -0.06220280	      0.50270116	      0.22596071	     -0.22596071	     -0.50270116	      0.06220280	    112.46820011	     72.73355828	     -1.96294040	    -77.24266391	     26.88539420	     88.75036648	      0.42286631	     -1.14684233	      0.42752734	     -0.57342117	     -7.31468055	      7.56559288	    -22.59798442	    -31.07471637	     50.74501876	    -13.34180967	     24.61762124	      3.56798678	     27.93171933	    -13.07162553	     52.61308386	     48.61317028	     -5.41263186	    -10.95717142	     87.07360191	     55.03701177	    -26.55598507	    -13.58107293	     58.43011439	      5.04252909	      0.00078929	     -0.03068148	     -0.00479635	      0.01394695	     -0.01750355	     -0.00059974	      0.00099235	     -0.06914029	     -0.00719932	      0.01305512	     -0.18214352	      0.00016240	     -0.01065002	      0.00373011	     -0.00084758	      0.00007193	      0.00002877	      0.00014385	      0.00009206	      0.00027619	      0.00015536	     -0.00072214	      0.00021259	      0.00025511	      0.00238405	      0.00836437	      0.00581869	     -0.00779866	      0.01882993	     -0.01786014	      0.00238405	      0.00836437	      0.00581869	      0.00052530	      0.01745607	     -0.00917252	      0.00381581	      0.00465132	      0.01563565	      0.00000000	      0.00707066	      0.00000000	     -0.00682888	     -0.03155831	     -0.00582580	      0.02489451	     -0.00249105	     -0.03767592	     -0.00084856	      0.01422346	     -0.00581869	      0.00234364	      0.02052704	     -0.01697118	     -0.00569747	      0.01232431	     -0.00521258	     -0.01187982	      0.02602247	     -0.02913386	     -0.02230498	      0.01377898	     -0.00699051	     -0.01478917	      0.03006323	     -0.03640722
      1.86666667	     -0.30650033	      0.12981907	     -0.12981907	      0.30650033	     -0.06206008	      0.50154776	      0.22544226	     -0.22544226	     -0.50154776	      0.06206008	    112.46034298	     72.56667798	     -1.96280326	    -77.84424933	     27.39987262	     88.99305090	      0.42508833	     -1.17773315	      0.42900051	     -0.58886657	     -9.71119353	      7.73518674	    -21.82189261	    -29.99085290	     49.73027336	    -13.98512632	     25.74492214	      3.61312784	     25.55133306	    -13.40701230	     50.34581827	     47.89680920	     -9.55455453	    -10.29249683	     85.93762414	     55.63696679	    -30.85862237	    -13.04867871	     59.26954398	      5.15027034	      0.00080630	     -0.03074044	     -0.00480584	      0.01392027	     -0.01764331	     -0.00055721	      0.00097442	     -0.06915188	     -0.00721887	      0.01308321	     -0.18213511	      0.00016961	     -0.01067914	      0.00374364	     -0.00085575	      0.00004340	      0.00001736	      0.00008680	      0.00005555	      0.00016665	      0.00009374	     -0.00126013	      0.00029516	      0.00035419	      0.00237858	      0.00834518	      0.00580534	     -0.00778077	      0.01878672	     -0.01781917	      0.00237858	      0.00834518	      0.00580534	      0.00052409	      0.01741602	     -0.00915147	      0.00380927	      0.00464065	      0.01561878	      0.00000000	      0.00703806	      0.00000000	     -0.00681321	     -0.03148590	     -0.00579871	      0.02477859	     -0.00251189	     -0.03806918	     -0.00084661	      0.01419083	     -0.00580534	      0.00233826	      0.02047995	     -0.01693224	     -0.00568439	      0.01229603	     -0.00520062	     -0.01185257	      0.02596277	     -0.02906701	     -0.02225380	      0.01374737	     -0.00697447	     -0.01475524	      0.02999425	     -0.03632368
